<svg width="31" height="33" viewBox="0 0 31 33" fill="none" xmlns="http://www.w3.org/2000/svg">
<g id="camera-outline">
<path id="Vector" d="M22.3634 13.6752L21.0116 11.5393C20.7267 11.2072 20.3362 11 19.8984 11H15.2266C14.7888 11 14.3983 11.2072 14.1134 11.5393L12.7616 13.6752C12.4768 14.0078 12.1096 14.25 11.6719 14.25H8.625C8.19402 14.25 7.7807 14.4212 7.47595 14.726C7.1712 15.0307 7 15.444 7 15.875V25.625C7 26.056 7.1712 26.4693 7.47595 26.774C7.7807 27.0788 8.19402 27.25 8.625 27.25H26.5C26.931 27.25 27.3443 27.0788 27.649 26.774C27.9538 26.4693 28.125 26.056 28.125 25.625V15.875C28.125 15.444 27.9538 15.0307 27.649 14.726C27.3443 14.4212 26.931 14.25 26.5 14.25H23.5039C23.0646 14.25 22.6482 14.0078 22.3634 13.6752Z" stroke="black" stroke-width="2" stroke-linecap="round" stroke-linejoin="round"/>
<path id="Vector_2" d="M17.5625 24C19.8062 24 21.625 22.1812 21.625 19.9375C21.625 17.6938 19.8062 15.875 17.5625 15.875C15.3188 15.875 13.5 17.6938 13.5 19.9375C13.5 22.1812 15.3188 24 17.5625 24Z" stroke="black" stroke-width="2" stroke-miterlimit="10"/>
<path id="Vector_3" d="M10.8594 14.1484V13.0312H9.64062V14.1484" stroke="black" stroke-width="2" stroke-linecap="round" stroke-linejoin="round"/>
</g>
</svg>
