<svg width="27" height="27" viewBox="0 0 27 27" fill="none" xmlns="http://www.w3.org/2000/svg">
<g id="car">
<path id="Vector" d="M23.6081 11.6427C23.5961 11.5869 23.5784 11.5325 23.5554 11.4803L21.5631 6.83121C21.1038 5.75701 19.9863 5.0625 18.7149 5.0625H8.2851C7.01473 5.0625 5.89624 5.75701 5.43745 6.83121L3.44303 11.4803C3.39771 11.5851 3.37455 11.6983 3.37501 11.8125V21.0938C3.37501 21.3175 3.4639 21.5321 3.62214 21.6904C3.78037 21.8486 3.99498 21.9375 4.21876 21.9375H5.90626C6.13003 21.9375 6.34464 21.8486 6.50288 21.6904C6.66111 21.5321 6.75001 21.3175 6.75001 21.0938V20.25H20.25V21.0938C20.25 21.3175 20.3389 21.5321 20.4971 21.6904C20.6554 21.8486 20.87 21.9375 21.0938 21.9375H22.7813C23.005 21.9375 23.2196 21.8486 23.3779 21.6904C23.5361 21.5321 23.625 21.3175 23.625 21.0938V11.8125C23.6251 11.7555 23.6194 11.6986 23.6081 11.6427ZM7.59376 16.875C7.26 16.875 6.93374 16.776 6.65623 16.5906C6.37872 16.4052 6.16243 16.1416 6.03471 15.8333C5.90699 15.5249 5.87357 15.1856 5.93868 14.8583C6.00379 14.5309 6.16451 14.2303 6.40051 13.9943C6.63651 13.7583 6.9372 13.5975 7.26454 13.5324C7.59189 13.4673 7.93118 13.5007 8.23953 13.6285C8.54789 13.7562 8.81144 13.9725 8.99686 14.25C9.18229 14.5275 9.28126 14.8537 9.28126 15.1875C9.28126 15.6351 9.10347 16.0643 8.787 16.3807C8.47053 16.6972 8.04131 16.875 7.59376 16.875ZM19.4063 16.875C19.0725 16.875 18.7462 16.776 18.4687 16.5906C18.1912 16.4052 17.9749 16.1416 17.8472 15.8333C17.7195 15.5249 17.6861 15.1856 17.7512 14.8583C17.8163 14.5309 17.977 14.2303 18.213 13.9943C18.449 13.7583 18.7497 13.5975 19.077 13.5324C19.4044 13.4673 19.7437 13.5007 20.052 13.6285C20.3604 13.7562 20.6239 13.9725 20.8094 14.25C20.9948 14.5275 21.0938 14.8537 21.0938 15.1875C21.0938 15.6351 20.916 16.0643 20.5995 16.3807C20.283 16.6972 19.8538 16.875 19.4063 16.875ZM5.49809 10.9688L6.98678 7.49619C7.17768 7.05006 7.69923 6.75 8.2851 6.75H18.7149C19.3003 6.75 19.8223 7.05006 20.0132 7.49619L21.5019 10.9688H5.49809Z" fill="black"/>
</g>
</svg>
