<svg width="29" height="29" viewBox="0 0 29 29" fill="none" xmlns="http://www.w3.org/2000/svg">
<path d="M27.2213 12.495C27.0539 12.2161 25.4022 11.5026 25.4022 11.5026C25.6895 11.3543 25.8859 11.3236 25.8859 10.71C25.8859 10.0406 25.8825 9.81748 25.4363 9.81748H23.9224C23.9162 9.80409 23.9095 9.79015 23.9034 9.7762C22.9261 7.64201 22.795 7.10261 21.3375 6.37634C19.3823 5.40407 15.7169 5.35498 14.28 5.35498C12.8431 5.35498 9.17771 5.40407 7.22425 6.37634C5.76501 7.10149 5.80127 7.47467 4.65831 9.7762C4.65831 9.78234 4.6466 9.79851 4.636 9.81748H3.12042C2.67752 9.81748 2.67417 10.0406 2.67417 10.71C2.67417 11.3236 2.87052 11.3543 3.15779 11.5026C3.15779 11.5026 1.56189 12.2719 1.33877 12.495C1.11564 12.7181 0.892517 14.28 0.892517 16.9575C0.892517 19.635 1.11564 22.3125 1.11564 22.3125H1.78167C1.78167 23.0934 1.89658 23.205 2.23127 23.205H6.69377C7.02845 23.205 7.14002 23.0934 7.14002 22.3125H21.42C21.42 23.0934 21.5316 23.205 21.8663 23.205H26.4403C26.6635 23.205 26.775 23.0376 26.775 22.3125H27.4444C27.4444 22.3125 27.6675 19.5792 27.6675 16.9575C27.6675 14.3358 27.3886 12.7739 27.2213 12.495ZM6.98718 15.0018C5.97124 15.1129 4.95012 15.1698 3.92813 15.1725C2.78908 15.1725 2.75003 15.2456 2.66971 14.5343C2.63949 14.2088 2.64904 13.8808 2.69816 13.5576L2.7333 13.3875H2.90064C3.57002 13.3875 4.19867 13.4159 5.3857 13.7657C5.98943 13.9468 6.55729 14.231 7.06415 14.6057C7.30736 14.782 7.36314 14.9494 7.36314 14.9494L6.98718 15.0018ZM20.7741 19.018L20.5275 19.635H8.03252C8.03252 19.635 8.05427 19.601 7.75361 19.0113C7.53049 18.5751 7.80939 18.2962 8.25062 18.1378C9.10519 17.8299 11.6025 16.9575 14.28 16.9575C16.9575 16.9575 19.5045 17.7094 20.3323 18.1378C20.6391 18.2962 21.0201 18.4078 20.7741 19.0214V19.018ZM6.43829 11.4022C6.25811 11.4126 6.07752 11.4139 5.89721 11.4061C6.0428 11.1473 6.12368 10.8589 6.26592 10.5577C6.71217 9.60942 7.22257 8.53619 8.13125 8.0838C9.44434 7.43004 12.1659 7.13552 14.28 7.13552C16.3941 7.13552 19.1157 7.42781 20.4288 8.0838C21.3375 8.53619 21.8456 9.60997 22.2941 10.5577C22.4375 10.8617 22.5172 11.1523 22.6667 11.4128C22.5552 11.419 22.4269 11.4128 22.1206 11.4022H6.43829ZM25.8345 14.5321C25.7152 15.2283 25.8267 15.1725 24.6319 15.1725C23.6099 15.1698 22.5888 15.1129 21.5729 15.0018C21.4139 14.9733 21.3687 14.705 21.4959 14.6057C22.0002 14.2269 22.5688 13.9423 23.1743 13.7657C24.3614 13.4159 25.0296 13.3691 25.6895 13.3925C25.7338 13.3942 25.776 13.4122 25.8078 13.4431C25.8396 13.474 25.8589 13.5156 25.8619 13.5598C25.8934 13.8845 25.8842 14.2119 25.8345 14.5343V14.5321Z" fill="black"/>
</svg>
