<svg width="32" height="32" viewBox="0 0 32 32" fill="none" xmlns="http://www.w3.org/2000/svg">
<g id="location-sharp">
<path id="Vector" d="M16 2C10.4794 2 6 6.03188 6 11C6 19 16 30 16 30C16 30 26 19 26 11C26 6.03188 21.5206 2 16 2ZM16 16C15.2089 16 14.4355 15.7654 13.7777 15.3259C13.1199 14.8864 12.6072 14.2616 12.3045 13.5307C12.0017 12.7998 11.9225 11.9956 12.0769 11.2196C12.2312 10.4437 12.6122 9.73098 13.1716 9.17157C13.731 8.61216 14.4437 8.2312 15.2196 8.07686C15.9956 7.92252 16.7998 8.00173 17.5307 8.30448C18.2616 8.60723 18.8864 9.11992 19.3259 9.77772C19.7654 10.4355 20 11.2089 20 12C19.9988 13.0605 19.577 14.0773 18.8271 14.8271C18.0773 15.577 17.0605 15.9988 16 16Z" fill="#318C59"/>
</g>
</svg>
