<svg width="26" height="26" viewBox="0 0 26 26" fill="none" xmlns="http://www.w3.org/2000/svg">
<g id="navigate">
<path id="Vector" d="M13.8125 23.5624C13.704 23.5625 13.5965 23.5408 13.4965 23.4986C13.3966 23.4565 13.306 23.3947 13.2303 23.317C13.1546 23.2393 13.0952 23.1472 13.0556 23.0461C13.016 22.9451 12.9971 22.8371 13 22.7286V13.4128C13 13.3051 12.9572 13.2017 12.881 13.1255C12.8048 13.0494 12.7015 13.0065 12.5937 13.0065H3.27081C3.09992 13.0086 2.93258 12.9577 2.79175 12.8609C2.65093 12.764 2.5435 12.626 2.4842 12.4657C2.41668 12.2746 2.42305 12.0651 2.50207 11.8784C2.58108 11.6917 2.72704 11.5413 2.91127 11.4567L22.4113 2.51159C22.5619 2.44256 22.7301 2.42125 22.8932 2.45051C23.0563 2.47978 23.2066 2.55822 23.3238 2.67531C23.4411 2.79241 23.5198 2.94256 23.5492 3.10563C23.5787 3.2687 23.5577 3.43689 23.4889 3.58764L14.5514 23.0876C14.4866 23.2293 14.3826 23.3493 14.2516 23.4335C14.1206 23.5177 13.9682 23.5624 13.8125 23.5624Z" fill="#9c9c9c"/>
</g>
</svg>
