<svg width="15" height="15" viewBox="0 0 15 15" fill="none" xmlns="http://www.w3.org/2000/svg">
<g id="person-sharp">
<path id="Vector" d="M7.5 7.5C8.14897 7.5 8.78337 7.30756 9.32297 6.94701C9.86256 6.58646 10.2831 6.074 10.5315 5.47443C10.7798 4.87486 10.8448 4.21511 10.7182 3.57861C10.5916 2.94211 10.2791 2.35745 9.82019 1.89856C9.3613 1.43967 8.77664 1.12716 8.14014 1.00055C7.50364 0.873942 6.84389 0.938922 6.24432 1.18727C5.64475 1.43562 5.13229 1.85619 4.77174 2.39579C4.41119 2.93539 4.21875 3.56978 4.21875 4.21875C4.21875 5.08899 4.56445 5.92359 5.17981 6.53895C5.79516 7.1543 6.62976 7.5 7.5 7.5ZM7.5 8.4375C5.46621 8.4375 1.40625 9.69375 1.40625 12.1875V14.0625H13.5938V12.1875C13.5938 9.69375 9.53379 8.4375 7.5 8.4375Z" fill="#A0A0A0"/>
</g>
</svg>
