<svg width="23" height="22" viewBox="0 0 23 22" fill="none" xmlns="http://www.w3.org/2000/svg">
<path id="Star 1" d="M7.78045 2.88917C8.98524 -0.637893 14.0148 -0.637894 15.2195 2.88917C15.7447 4.42661 17.1944 5.47417 18.8191 5.47417H19.1458C22.7714 5.47417 24.2301 10.1506 21.2474 12.2119C19.8866 13.1523 19.3191 14.891 19.8539 16.4564C21.0251 19.8851 17.1549 22.8564 14.1742 20.7965L13.7359 20.4936C12.3904 19.5637 10.6096 19.5637 9.26406 20.4936L8.82579 20.7965C5.84512 22.8564 1.97495 19.8851 3.14614 16.4564C3.68085 14.891 3.1134 13.1523 1.75255 12.2119C-1.23009 10.1506 0.228612 5.47417 3.85423 5.47417H4.18094C5.8056 5.47417 7.25529 4.42661 7.78045 2.88917Z" fill="white"/>
</svg>
