<svg width="27" height="27" viewBox="0 0 27 27" fill="none" xmlns="http://www.w3.org/2000/svg">
<g clip-path="url(#clip0_240_65)">
<path fill-rule="evenodd" clip-rule="evenodd" d="M20.1591 15.7425C20.4913 15.2181 20.7316 14.1838 20.8324 13.5705C20.9364 12.9376 21.0687 11.7479 20.8119 11.1812C21.791 11.4908 22.7406 11.4581 23.602 11.4665C24.4654 11.4748 24.5012 11.3352 24.5173 10.4985C23.9882 8.55236 22.9576 6.81297 21.5725 5.42786C19.5066 3.3621 16.6526 2.08444 13.5002 2.08444C10.3477 2.08444 7.49371 3.3621 5.42786 5.42786C4.03314 6.82258 2.99783 8.5768 2.47231 10.5396C2.48961 11.4125 2.64483 11.5152 3.54743 11.46C4.32611 11.4119 5.1963 11.3704 6.42381 11.021C5.98953 11.9434 6.37494 14.0747 6.68749 15.0095C6.84015 15.4658 6.91437 15.6944 7.14254 16.0666C6.35471 15.7027 2.71732 14.6045 2.3245 15.8394C2.7855 18.0532 3.88744 20.032 5.42786 21.5725C6.87255 23.0166 8.70273 24.076 10.7507 24.5821C10.9754 24.5725 11.1943 24.5391 11.406 24.4795C11.7935 23.6209 11.9372 22.509 11.6083 21.4194H15.4225C15.0685 22.5689 15.1866 23.6283 15.4289 24.1412C15.5486 24.395 15.7409 24.5581 15.9883 24.6437C18.1418 24.165 20.0667 23.0782 21.5725 21.5725C23.0082 20.1363 24.0635 18.3189 24.5731 16.2855C24.6354 16.0384 24.7166 15.8253 24.6636 15.5756C23.5198 14.9042 21.7528 14.9937 20.1591 15.7425ZM19.2771 10.3994C13.8047 9.10086 9.95001 9.82261 7.2185 10.5588C7.12414 10.6071 7.04113 10.693 6.96974 10.8092C6.74396 11.1763 6.64658 11.8073 6.66552 12.5345C6.68474 13.2803 6.82779 14.1186 7.08159 14.8773C7.34828 15.6751 7.73488 16.3805 8.22324 16.7836C8.69486 17.0737 9.10315 17.3905 9.37735 17.6982C9.91578 18.3022 10.7268 19.6038 11.2214 21.0025H15.8096C16.2906 19.6193 17.0595 18.1857 17.8616 17.4629C18.0879 17.2595 18.4486 17.0076 18.8934 16.7482C19.4225 16.3375 19.8407 15.5801 20.1219 14.7293C20.3641 13.996 20.5025 13.1988 20.5224 12.4924C20.5422 11.8028 20.4518 11.2064 20.2377 10.8548C20.154 10.7168 20.0512 10.6211 19.9307 10.5813L19.9313 10.5788C19.6996 10.5094 19.48 10.4475 19.2771 10.3994ZM13.5002 11.0368C12.1398 11.0368 11.0368 12.1398 11.0368 13.4999C11.0368 14.8606 12.1398 15.9633 13.5002 15.9633C14.8606 15.9633 15.9633 14.8606 15.9633 13.4999C15.9633 12.1398 14.8606 11.0368 13.5002 11.0368ZM13.5002 3.8147e-06C17.2278 3.8147e-06 20.6033 1.51123 23.0462 3.95416C25.489 6.39709 27 9.77227 27 13.4999C27 17.2277 25.489 20.6033 23.0462 23.0461C20.6033 25.489 17.2278 27 13.5002 27C9.77245 27 6.39718 25.489 3.95416 23.0461C1.51123 20.6033 0 17.2277 0 13.4999C0 9.77227 1.51123 6.39709 3.95416 3.95416C6.39718 1.51123 9.77245 3.8147e-06 13.5002 3.8147e-06Z" fill="black"/>
</g>
<defs>
<clipPath id="clip0_240_65">
<rect width="27" height="27" fill="black"/>
</clipPath>
</defs>
</svg>
