<svg width="18" height="18" viewBox="0 0 18 18" fill="none" xmlns="http://www.w3.org/2000/svg">
<g id="svg1" clip-path="url(#clip0_240_199)">
<g id="g1">
<g id="group-R5">
<path id="path2" fill-rule="evenodd" clip-rule="evenodd" d="M13.4394 10.495C13.6608 10.1454 13.8211 9.45585 13.8883 9.04698C13.9576 8.62506 14.0458 7.83192 13.8746 7.45412C14.5273 7.66053 15.1604 7.63875 15.7347 7.6443C16.3102 7.64985 16.3342 7.55681 16.3449 6.999C15.9921 5.70158 15.3051 4.54198 14.3817 3.61857C13.0044 2.2414 11.1017 1.38963 9.00012 1.38963C6.89845 1.38963 4.99581 2.2414 3.61857 3.61857C2.68876 4.54839 1.99856 5.71787 1.64821 7.0264C1.65974 7.60836 1.76322 7.67682 2.36495 7.64003C2.88407 7.60794 3.4642 7.5803 4.28254 7.34734C3.99302 7.96225 4.24996 9.38312 4.45833 10.0063C4.5601 10.3105 4.60958 10.4629 4.76169 10.7111C4.23647 10.4685 1.81154 9.73633 1.54967 10.5596C1.857 12.0355 2.59162 13.3547 3.61857 14.3817C4.5817 15.3444 5.80182 16.0507 7.16716 16.3881C7.31695 16.3817 7.46284 16.3594 7.60397 16.3196C7.86231 15.7473 7.95816 15.006 7.73887 14.2796H10.2817C10.0457 15.0459 10.1244 15.7522 10.286 16.0941C10.3658 16.2633 10.494 16.3721 10.6589 16.4292C12.0945 16.11 13.3778 15.3855 14.3817 14.3817C15.3388 13.4242 16.0423 12.2126 16.3821 10.857C16.4236 10.6923 16.4777 10.5502 16.4424 10.3837C15.6799 9.93616 14.5019 9.99583 13.4394 10.495ZM12.8514 6.93293C9.20312 6.06724 6.63334 6.54841 4.81234 7.03921C4.74943 7.07137 4.69409 7.12866 4.6465 7.20615C4.49597 7.45088 4.43105 7.87152 4.44368 8.35635C4.4565 8.85356 4.55186 9.4124 4.72106 9.91822C4.89886 10.4501 5.15659 10.9203 5.48216 11.189C5.79657 11.3825 6.06876 11.5936 6.25157 11.7988C6.61052 12.2015 7.15117 13.0692 7.4809 14.0017H10.5397C10.8604 13.0795 11.373 12.1238 11.9077 11.642C12.0586 11.5063 12.299 11.3384 12.5956 11.1655C12.9484 10.8917 13.2271 10.3868 13.4146 9.81956C13.5761 9.33064 13.6683 8.7992 13.6816 8.32828C13.6948 7.86853 13.6345 7.47096 13.4918 7.23654C13.436 7.14453 13.3675 7.08076 13.2871 7.05422L13.2875 7.05252C13.1331 7.00627 12.9867 6.96502 12.8514 6.93293ZM9.00012 7.35784C8.09319 7.35784 7.35789 8.09319 7.35789 8.99994C7.35789 9.90705 8.09319 10.6422 9.00012 10.6422C9.90705 10.6422 10.6422 9.90705 10.6422 8.99994C10.6422 8.09319 9.90705 7.35784 9.00012 7.35784ZM9.00012 1.90735e-06C11.4852 1.90735e-06 13.7355 1.00749 15.3641 2.63611C16.9927 4.26473 18 6.51485 18 8.99994C18 11.4852 16.9927 13.7355 15.3641 15.3641C13.7355 16.9927 11.4852 18 9.00012 18C6.51497 18 4.26479 16.9927 2.6361 15.3641C1.00748 13.7355 0 11.4852 0 8.99994C0 6.51485 1.00748 4.26473 2.6361 2.63611C4.26479 1.00749 6.51497 1.90735e-06 9.00012 1.90735e-06Z" fill="white"/>
</g>
</g>
</g>
<defs>
<clipPath id="clip0_240_199">
<rect width="18" height="18" fill="white"/>
</clipPath>
</defs>
</svg>
